<?xml version="1.0" encoding="UTF-8" standalone="no"?>
<!DOCTYPE svg PUBLIC "-//W3C//DTD SVG 1.1//EN" "http://www.w3.org/Graphics/SVG/1.1/DTD/svg11.dtd">
<svg width="100%" height="100%" viewBox="0 0 417 417" version="1.1" xmlns="http://www.w3.org/2000/svg" xmlns:xlink="http://www.w3.org/1999/xlink" xml:space="preserve" xmlns:serif="http://www.serif.com/" style="fill-rule:evenodd;clip-rule:evenodd;stroke-linecap:round;stroke-linejoin:round;stroke-miterlimit:1.5;">
    <path d="M208.667,2.671c3.39,10.168 -1.905,22.428 0.668,32.719c2.465,9.861 0.668,21.717 0.668,32.051c-0,22.128 -0.668,44.476 -0.668,67.441c-0,19.345 -0.827,39.348 3.339,58.093c2.074,9.337 -1.336,19.386 -1.336,28.713c0,27.343 -1.335,54.161 -1.335,81.464c-0,14.022 -4.007,26.169 -4.007,40.732c0,2.974 -1.503,11.766 0,14.022c3.249,4.873 2.003,13.682 2.003,20.032c0,14.701 3.339,27.602 3.339,40.064" style="fill:none;stroke:#080c10;stroke-width:4.17px;" />
</svg>