<?xml version="1.0" encoding="UTF-8" standalone="no"?>
<!DOCTYPE svg PUBLIC "-//W3C//DTD SVG 1.1//EN" "http://www.w3.org/Graphics/SVG/1.1/DTD/svg11.dtd">
<svg width="100%" height="100%" viewBox="0 0 1438 230" version="1.1" xmlns="http://www.w3.org/2000/svg" xmlns:xlink="http://www.w3.org/1999/xlink" xml:space="preserve" xmlns:serif="http://www.serif.com/" style="fill-rule:evenodd;clip-rule:evenodd;stroke-linecap:round;stroke-linejoin:round;stroke-miterlimit:1.5;">
    <text x="4.97px" y="141.589px" style="font-family:'xkcdScript', 'xkcd Script', cursive;font-size:200px;fill:#080c10;">Linear Equations</text>
    <path d="M8.646,222.943c1.738,0 10.032,-5.997 10.951,-6.916c1.263,-1.263 5.244,-0.057 6.34,-1.153c1.084,-1.084 8.478,0 9.799,0c10.832,0 21.496,-0.576 32.277,-0.576c40.555,-0 79.246,-4.37 118.735,-10.952c60.793,-10.132 124.041,-8.844 183.866,-25.937c10.418,-2.976 22.318,-0.775 32.854,-2.882c31.69,-6.338 65.164,-6.216 97.409,-9.798c85.018,-9.447 168.116,-18.509 253.609,-24.208c29.93,-1.996 61.568,-0.23 91.068,3.458c24.235,3.029 49.619,-2.875 73.777,0.576c21.85,3.122 50.335,4.831 72.048,1.729c46.184,-6.597 92.838,-0.37 139.485,-4.611c39.744,-3.613 83.832,-6.221 123.346,-0.576c25.669,3.667 52.326,0.363 77.812,4.611c9.525,1.588 20.2,-1.336 29.395,1.729c6.994,2.331 18.862,0 25.938,0c24.958,0 50.041,-3.688 74.929,-2.305c10.266,0.57 23.844,0.106 32.854,4.611c1.366,0.682 8.634,1.128 9.222,2.305c1.174,2.347 5.719,3.059 8.646,4.035c5.763,1.921 14.453,11.528 20.174,11.528" style="fill:none;stroke:#080c10;stroke-width:11.67px;" />
</svg>